<svg width="160" height="160" viewBox="0 0 160 160" fill="none" xmlns="http://www.w3.org/2000/svg">
<path fill-rule="evenodd" clip-rule="evenodd" d="M62.4211 22.79C76.2085 18.4021 91.127 19.2116 104.417 25.0652L104.421 25.0683C105.03 25.3027 105.427 25.9215 105.386 26.5997V37.3288C105.386 38.207 104.658 38.9226 103.761 38.9226C103.424 38.9226 103.114 38.8258 102.82 38.6288L102.774 38.5945C92.5393 30.3563 79.6773 25.8246 66.5491 25.8246H66.4179H62.8867C62.0398 25.8246 61.3242 25.1246 61.3242 24.2933C61.3242 23.5963 61.7648 22.9931 62.4211 22.79ZM86.3689 38.2113C93.2314 40.5334 98.6876 44.2868 104.606 50.7624V50.7592C105.116 51.2406 105.387 51.9281 105.347 52.6532V65.4136C105.284 66.0856 104.743 66.5794 104.094 66.5794H104.009C103.65 66.57 103.322 66.4012 103.078 66.095L103.053 66.0637C97.1656 57.6442 91.7248 52.8626 84.8628 50.0842C78.2782 47.4152 69.8722 46.3276 55.8473 46.3276H33.4414C32.6476 46.3276 32.0039 45.6963 32.0039 44.9212C32.0039 44.5869 32.1195 44.2618 32.3289 43.9993C34.5226 40.974 37.0601 38.1019 39.8601 35.4955L39.8788 35.4767C40.4288 35.0048 41.1694 34.7329 41.91 34.7329H55.8473C70.0348 34.7329 79.1628 35.7736 86.3689 38.2113ZM98.4518 134.544C98.1457 134.272 97.7459 134.132 97.3301 134.147H93.8768H93.7456C80.6271 134.147 67.7557 129.616 57.4743 121.365C57.24 121.19 56.9306 121.087 56.6181 121.084C56.1994 121.065 55.7931 121.215 55.4806 121.515C55.1806 121.802 54.9994 122.193 54.9775 122.609V133.375C54.94 134.007 55.2713 134.61 55.8338 134.913L55.8806 134.935C63.5243 138.304 71.7087 140.001 79.9052 140.001C85.9582 140.001 92.021 139.076 97.8799 137.21C98.5676 136.998 99.027 136.322 98.9768 135.607C98.952 135.194 98.7677 134.813 98.4584 134.538L98.4518 134.544ZM104.507 113.895H126.91C127.704 113.895 128.347 114.527 128.347 115.301C128.347 115.636 128.232 115.961 128.023 116.223C125.748 119.233 123.207 122.008 120.482 124.456L120.472 124.465C119.923 124.937 119.182 125.208 118.441 125.208H104.504C90.3262 125.208 81.1982 124.171 73.9855 121.74C67.1263 119.424 61.6703 115.686 55.7484 109.241C55.2453 108.767 54.9672 108.048 55.0078 107.316V94.7749C55.0734 94.0746 55.6578 93.5655 56.3453 93.6124C56.7046 93.6217 57.0328 93.7905 57.2765 94.0966L57.3016 94.128C63.1921 102.554 68.6324 107.338 75.4921 110.123C82.0855 112.801 90.4916 113.895 104.507 113.895ZM137.324 61.7698C137.114 61.0822 136.433 60.6166 135.721 60.6728C135.308 60.6978 134.926 60.8822 134.652 61.1916C134.38 61.4979 134.236 61.9073 134.255 62.3136V65.767C134.286 78.9585 129.739 91.8693 121.455 102.126L121.42 102.173C121.224 102.467 121.127 102.776 121.127 103.114C121.127 104.011 121.842 104.739 122.721 104.739H133.42C133.486 104.748 133.555 104.751 133.621 104.751C134.111 104.751 134.583 104.502 134.886 104.064L134.945 103.958C138.33 96.3257 140.03 88.2473 139.998 79.9588C140.061 73.8023 139.158 67.6795 137.314 61.7666L137.324 61.7698ZM116.258 31.6709C119.251 33.9398 122.036 36.5025 124.533 39.284L124.529 39.2777C125.011 39.8403 125.283 40.5716 125.283 41.2904V55.2291C125.283 69.3961 124.242 78.5124 121.808 85.7101C119.492 92.5543 115.748 98.0044 109.286 103.927C108.82 104.421 108.155 104.705 107.48 104.705H107.361H94.8768C94.1582 104.705 93.5957 104.155 93.5957 103.455C93.5957 102.992 93.8329 102.568 94.2051 102.358C102.614 96.489 107.389 91.0632 110.17 84.2283C112.849 77.6466 113.942 69.2461 113.942 55.2322V32.8553C113.942 32.3553 114.22 31.8833 114.667 31.624C115.114 31.3646 115.658 31.3583 116.158 31.6083L116.258 31.6709ZM65.4367 54.7042H52.6775C51.9525 54.6635 51.265 54.9355 50.7838 55.4448C44.312 61.3454 40.5589 66.7958 38.2339 73.6685C35.7965 80.8751 34.7559 89.9979 34.7559 104.177V118.116C34.7559 118.834 35.0277 119.563 35.4996 120.116L35.5152 120.131C38.1214 122.96 40.9901 125.532 44.0433 127.776L44.1339 127.832C44.3808 127.957 44.6088 128.02 44.8308 128.023H44.9058C45.6588 128.023 46.2995 127.413 46.3526 126.626V104.177C46.3526 90.1666 47.4432 81.769 50.1088 75.1872C52.89 68.3271 57.6681 62.8861 66.0867 56.9981L66.118 56.9731C66.4242 56.7294 66.593 56.4012 66.6024 56.0418C66.6461 55.3542 66.1399 54.7698 65.4399 54.7042H65.4367ZM37.3888 54.6743C37.8076 54.6962 38.1951 54.8775 38.4826 55.1775L38.4857 55.1806C38.7857 55.4932 38.9357 55.8963 38.917 56.3183C38.9138 56.6308 38.8107 56.9402 38.6357 57.1746C30.3702 67.4475 25.8234 80.3611 25.8234 93.5527V97.0059C25.8421 97.4123 25.6984 97.8216 25.4265 98.1281C25.1484 98.4375 24.7703 98.6217 24.3578 98.647C24.3204 98.6498 24.2861 98.6498 24.2487 98.6498H24.2484C23.5765 98.6498 22.9547 98.2031 22.7547 97.5497C18.4078 83.7174 19.2266 68.8223 25.0609 55.6088C25.3702 54.99 25.9671 54.6368 26.6233 54.6743H37.3888Z" fill="#161310"/>
</svg>
